<svg width="134" height="39" viewBox="0 0 134 39" fill="none" xmlns="http://www.w3.org/2000/svg">
<g filter="url(#filter0_d_6_4)">
<mask id="path-1-outside-1_6_4" maskUnits="userSpaceOnUse" x="-1" y="-5" width="136" height="39" fill="black">
<rect fill="white" x="-1" y="-5" width="136" height="39"/>
<path d="M24.796 12.4568V22.8056L20.6016 27H9.116L4.9216 22.8056V5.048L9.116 0.853597H20.6016L24.796 5.048V10.8496H17.5832V7.596L16.76 6.7336H12.9576L12.0952 7.596V20.2576L12.9576 21.12H16.76L17.6224 20.2576V17.8272H15.6232V12.4568H24.796ZM45.0811 15.2008V21.0808H46.6491V26.9608H36.3395V21.0808H37.9467V15.2008L29.4795 6.7336H27.0099V0.853597H39.4755V6.7336H38.4171L41.5139 9.8696L44.6107 6.7336H43.5915V0.853597H55.6259V6.7336H53.5483L45.0811 15.2008ZM71.6777 23.7856L65.9937 14.3384V21.12H67.5617V27H57.2521V21.12H58.8201V6.7336H57.2521V0.853597H65.6409L71.6777 11.0064L77.7537 0.853597H86.1817V6.7336H84.5745V21.12H86.1817V27H75.8329V21.12H77.4009V14.3384L71.6777 23.7856ZM102.762 23.7856L97.078 14.3384V21.12H98.646V27H88.3364V21.12H89.9044V6.7336H88.3364V0.853597H96.7252L102.762 11.0064L108.838 0.853597H117.266V6.7336H115.659V21.12H117.266V27H106.917V21.12H108.485V14.3384L102.762 23.7856ZM129.73 27H119.421V21.12H120.989V6.7336H119.421V0.853597H129.73V6.7336H128.162V21.12H129.73V27Z"/>
</mask>
<path d="M24.796 12.4568V22.8056L20.6016 27H9.116L4.9216 22.8056V5.048L9.116 0.853597H20.6016L24.796 5.048V10.8496H17.5832V7.596L16.76 6.7336H12.9576L12.0952 7.596V20.2576L12.9576 21.12H16.76L17.6224 20.2576V17.8272H15.6232V12.4568H24.796ZM45.0811 15.2008V21.0808H46.6491V26.9608H36.3395V21.0808H37.9467V15.2008L29.4795 6.7336H27.0099V0.853597H39.4755V6.7336H38.4171L41.5139 9.8696L44.6107 6.7336H43.5915V0.853597H55.6259V6.7336H53.5483L45.0811 15.2008ZM71.6777 23.7856L65.9937 14.3384V21.12H67.5617V27H57.2521V21.12H58.8201V6.7336H57.2521V0.853597H65.6409L71.6777 11.0064L77.7537 0.853597H86.1817V6.7336H84.5745V21.12H86.1817V27H75.8329V21.12H77.4009V14.3384L71.6777 23.7856ZM102.762 23.7856L97.078 14.3384V21.12H98.646V27H88.3364V21.12H89.9044V6.7336H88.3364V0.853597H96.7252L102.762 11.0064L108.838 0.853597H117.266V6.7336H115.659V21.12H117.266V27H106.917V21.12H108.485V14.3384L102.762 23.7856ZM129.73 27H119.421V21.12H120.989V6.7336H119.421V0.853597H129.73V6.7336H128.162V21.12H129.73V27Z" fill="#20F35B"/>
<path d="M24.796 12.4568V22.8056L20.6016 27H9.116L4.9216 22.8056V5.048L9.116 0.853597H20.6016L24.796 5.048V10.8496H17.5832V7.596L16.76 6.7336H12.9576L12.0952 7.596V20.2576L12.9576 21.12H16.76L17.6224 20.2576V17.8272H15.6232V12.4568H24.796ZM45.0811 15.2008V21.0808H46.6491V26.9608H36.3395V21.0808H37.9467V15.2008L29.4795 6.7336H27.0099V0.853597H39.4755V6.7336H38.4171L41.5139 9.8696L44.6107 6.7336H43.5915V0.853597H55.6259V6.7336H53.5483L45.0811 15.2008ZM71.6777 23.7856L65.9937 14.3384V21.12H67.5617V27H57.2521V21.12H58.8201V6.7336H57.2521V0.853597H65.6409L71.6777 11.0064L77.7537 0.853597H86.1817V6.7336H84.5745V21.12H86.1817V27H75.8329V21.12H77.4009V14.3384L71.6777 23.7856ZM102.762 23.7856L97.078 14.3384V21.12H98.646V27H88.3364V21.12H89.9044V6.7336H88.3364V0.853597H96.7252L102.762 11.0064L108.838 0.853597H117.266V6.7336H115.659V21.12H117.266V27H106.917V21.12H108.485V14.3384L102.762 23.7856ZM129.73 27H119.421V21.12H120.989V6.7336H119.421V0.853597H129.73V6.7336H128.162V21.12H129.73V27Z" fill="white" fill-opacity="0.01"/>
<path d="M24.796 12.4568H29.796V7.4568H24.796V12.4568ZM24.796 22.8056L28.3315 26.3411L29.796 24.8767V22.8056H24.796ZM20.6016 27V32H22.6727L24.1371 30.5355L20.6016 27ZM9.116 27L5.58047 30.5355L7.04493 32H9.116V27ZM4.9216 22.8056H-0.0784001V24.8767L1.38607 26.3411L4.9216 22.8056ZM4.9216 5.048L1.38607 1.51247L-0.0784001 2.97693V5.048H4.9216ZM9.116 0.853597V-4.1464H7.04493L5.58047 -2.68194L9.116 0.853597ZM20.6016 0.853597L24.1371 -2.68194L22.6727 -4.1464H20.6016V0.853597ZM24.796 5.048H29.796V2.97693L28.3315 1.51247L24.796 5.048ZM24.796 10.8496V15.8496H29.796V10.8496H24.796ZM17.5832 10.8496H12.5832V15.8496H17.5832V10.8496ZM17.5832 7.596H22.5832V5.59271L21.2 4.14362L17.5832 7.596ZM16.76 6.7336L20.3768 3.28122L18.8995 1.7336H16.76V6.7336ZM12.9576 6.7336V1.7336H10.8865L9.42207 3.19806L12.9576 6.7336ZM12.0952 7.596L8.55967 4.06046L7.0952 5.52493V7.596H12.0952ZM12.0952 20.2576H7.0952V22.3287L8.55967 23.7931L12.0952 20.2576ZM12.9576 21.12L9.42207 24.6555L10.8865 26.12H12.9576V21.12ZM16.76 21.12V26.12H18.8311L20.2955 24.6555L16.76 21.12ZM17.6224 20.2576L21.1579 23.7931L22.6224 22.3287V20.2576H17.6224ZM17.6224 17.8272H22.6224V12.8272H17.6224V17.8272ZM15.6232 17.8272H10.6232V22.8272H15.6232V17.8272ZM15.6232 12.4568V7.4568H10.6232V12.4568H15.6232ZM19.796 12.4568V22.8056H29.796V12.4568H19.796ZM21.2605 19.2701L17.0661 23.4645L24.1371 30.5355L28.3315 26.3411L21.2605 19.2701ZM20.6016 22H9.116V32H20.6016V22ZM12.6515 23.4645L8.45713 19.2701L1.38607 26.3411L5.58047 30.5355L12.6515 23.4645ZM9.9216 22.8056V5.048H-0.0784001V22.8056H9.9216ZM8.45713 8.58353L12.6515 4.38913L5.58047 -2.68194L1.38607 1.51247L8.45713 8.58353ZM9.116 5.8536H20.6016V-4.1464H9.116V5.8536ZM17.0661 4.38913L21.2605 8.58353L28.3315 1.51247L24.1371 -2.68194L17.0661 4.38913ZM19.796 5.048V10.8496H29.796V5.048H19.796ZM24.796 5.8496H17.5832V15.8496H24.796V5.8496ZM22.5832 10.8496V7.596H12.5832V10.8496H22.5832ZM21.2 4.14362L20.3768 3.28122L13.1432 10.186L13.9664 11.0484L21.2 4.14362ZM16.76 1.7336H12.9576V11.7336H16.76V1.7336ZM9.42207 3.19806L8.55967 4.06046L15.6307 11.1315L16.4931 10.2691L9.42207 3.19806ZM7.0952 7.596V20.2576H17.0952V7.596H7.0952ZM8.55967 23.7931L9.42207 24.6555L16.4931 17.5845L15.6307 16.7221L8.55967 23.7931ZM12.9576 26.12H16.76V16.12H12.9576V26.12ZM20.2955 24.6555L21.1579 23.7931L14.0869 16.7221L13.2245 17.5845L20.2955 24.6555ZM22.6224 20.2576V17.8272H12.6224V20.2576H22.6224ZM17.6224 12.8272H15.6232V22.8272H17.6224V12.8272ZM20.6232 17.8272V12.4568H10.6232V17.8272H20.6232ZM15.6232 17.4568H24.796V7.4568H15.6232V17.4568ZM45.0811 15.2008L41.5455 11.6653L40.0811 13.1297V15.2008H45.0811ZM45.0811 21.0808H40.0811V26.0808H45.0811V21.0808ZM46.6491 21.0808H51.6491V16.0808H46.6491V21.0808ZM46.6491 26.9608V31.9608H51.6491V26.9608H46.6491ZM36.3395 26.9608H31.3395V31.9608H36.3395V26.9608ZM36.3395 21.0808V16.0808H31.3395V21.0808H36.3395ZM37.9467 21.0808V26.0808H42.9467V21.0808H37.9467ZM37.9467 15.2008H42.9467V13.1297L41.4822 11.6653L37.9467 15.2008ZM29.4795 6.7336L33.015 3.19806L31.5506 1.7336H29.4795V6.7336ZM27.0099 6.7336H22.0099V11.7336H27.0099V6.7336ZM27.0099 0.853597V-4.1464H22.0099V0.853597H27.0099ZM39.4755 0.853597H44.4755V-4.1464H39.4755V0.853597ZM39.4755 6.7336V11.7336H44.4755V6.7336H39.4755ZM38.4171 6.7336V1.7336H26.4526L34.8594 10.2468L38.4171 6.7336ZM41.5139 9.8696L37.9562 13.3828L41.5139 16.9856L45.0716 13.3828L41.5139 9.8696ZM44.6107 6.7336L48.1684 10.2468L56.5752 1.7336H44.6107V6.7336ZM43.5915 6.7336H38.5915V11.7336H43.5915V6.7336ZM43.5915 0.853597V-4.1464H38.5915V0.853597H43.5915ZM55.6259 0.853597H60.6259V-4.1464H55.6259V0.853597ZM55.6259 6.7336V11.7336H60.6259V6.7336H55.6259ZM53.5483 6.7336V1.7336H51.4772L50.0127 3.19806L53.5483 6.7336ZM40.0811 15.2008V21.0808H50.0811V15.2008H40.0811ZM45.0811 26.0808H46.6491V16.0808H45.0811V26.0808ZM41.6491 21.0808V26.9608H51.6491V21.0808H41.6491ZM46.6491 21.9608H36.3395V31.9608H46.6491V21.9608ZM41.3395 26.9608V21.0808H31.3395V26.9608H41.3395ZM36.3395 26.0808H37.9467V16.0808H36.3395V26.0808ZM42.9467 21.0808V15.2008H32.9467V21.0808H42.9467ZM41.4822 11.6653L33.015 3.19806L25.9439 10.2691L34.4111 18.7363L41.4822 11.6653ZM29.4795 1.7336H27.0099V11.7336H29.4795V1.7336ZM32.0099 6.7336V0.853597H22.0099V6.7336H32.0099ZM27.0099 5.8536H39.4755V-4.1464H27.0099V5.8536ZM34.4755 0.853597V6.7336H44.4755V0.853597H34.4755ZM39.4755 1.7336H38.4171V11.7336H39.4755V1.7336ZM34.8594 10.2468L37.9562 13.3828L45.0716 6.35637L41.9748 3.22037L34.8594 10.2468ZM45.0716 13.3828L48.1684 10.2468L41.053 3.22037L37.9562 6.35637L45.0716 13.3828ZM44.6107 1.7336H43.5915V11.7336H44.6107V1.7336ZM48.5915 6.7336V0.853597H38.5915V6.7336H48.5915ZM43.5915 5.8536H55.6259V-4.1464H43.5915V5.8536ZM50.6259 0.853597V6.7336H60.6259V0.853597H50.6259ZM55.6259 1.7336H53.5483V11.7336H55.6259V1.7336ZM50.0127 3.19806L41.5455 11.6653L48.6166 18.7363L57.0838 10.2691L50.0127 3.19806ZM71.6777 23.7856L67.3933 26.3633L71.663 33.4597L75.9541 26.3763L71.6777 23.7856ZM65.9937 14.3384L70.278 11.7607L60.9937 -3.67049V14.3384H65.9937ZM65.9937 21.12H60.9937V26.12H65.9937V21.12ZM67.5617 21.12H72.5617V16.12H67.5617V21.12ZM67.5617 27V32H72.5617V27H67.5617ZM57.2521 27H52.2521V32H57.2521V27ZM57.2521 21.12V16.12H52.2521V21.12H57.2521ZM58.8201 21.12V26.12H63.8201V21.12H58.8201ZM58.8201 6.7336H63.8201V1.7336H58.8201V6.7336ZM57.2521 6.7336H52.2521V11.7336H57.2521V6.7336ZM57.2521 0.853597V-4.1464H52.2521V0.853597H57.2521ZM65.6409 0.853597L69.9385 -1.70178L68.485 -4.1464H65.6409V0.853597ZM71.6777 11.0064L67.38 13.5618L71.6638 20.7663L75.9681 13.574L71.6777 11.0064ZM77.7537 0.853597V-4.1464H74.919L73.4633 -1.71401L77.7537 0.853597ZM86.1817 0.853597H91.1817V-4.1464H86.1817V0.853597ZM86.1817 6.7336V11.7336H91.1817V6.7336H86.1817ZM84.5745 6.7336V1.7336H79.5745V6.7336H84.5745ZM84.5745 21.12H79.5745V26.12H84.5745V21.12ZM86.1817 21.12H91.1817V16.12H86.1817V21.12ZM86.1817 27V32H91.1817V27H86.1817ZM75.8329 27H70.8329V32H75.8329V27ZM75.8329 21.12V16.12H70.8329V21.12H75.8329ZM77.4009 21.12V26.12H82.4009V21.12H77.4009ZM77.4009 14.3384H82.4009V-3.56485L73.1244 11.7477L77.4009 14.3384ZM75.962 21.2079L70.278 11.7607L61.7093 16.9161L67.3933 26.3633L75.962 21.2079ZM60.9937 14.3384V21.12H70.9937V14.3384H60.9937ZM65.9937 26.12H67.5617V16.12H65.9937V26.12ZM62.5617 21.12V27H72.5617V21.12H62.5617ZM67.5617 22H57.2521V32H67.5617V22ZM62.2521 27V21.12H52.2521V27H62.2521ZM57.2521 26.12H58.8201V16.12H57.2521V26.12ZM63.8201 21.12V6.7336H53.8201V21.12H63.8201ZM58.8201 1.7336H57.2521V11.7336H58.8201V1.7336ZM62.2521 6.7336V0.853597H52.2521V6.7336H62.2521ZM57.2521 5.8536H65.6409V-4.1464H57.2521V5.8536ZM61.3432 3.40897L67.38 13.5618L75.9753 8.45102L69.9385 -1.70178L61.3432 3.40897ZM75.9681 13.574L82.0441 3.4212L73.4633 -1.71401L67.3873 8.43879L75.9681 13.574ZM77.7537 5.8536H86.1817V-4.1464H77.7537V5.8536ZM81.1817 0.853597V6.7336H91.1817V0.853597H81.1817ZM86.1817 1.7336H84.5745V11.7336H86.1817V1.7336ZM79.5745 6.7336V21.12H89.5745V6.7336H79.5745ZM84.5745 26.12H86.1817V16.12H84.5745V26.12ZM81.1817 21.12V27H91.1817V21.12H81.1817ZM86.1817 22H75.8329V32H86.1817V22ZM80.8329 27V21.12H70.8329V27H80.8329ZM75.8329 26.12H77.4009V16.12H75.8329V26.12ZM82.4009 21.12V14.3384H72.4009V21.12H82.4009ZM73.1244 11.7477L67.4012 21.1949L75.9541 26.3763L81.6773 16.9291L73.1244 11.7477ZM102.762 23.7856L98.4777 26.3633L102.747 33.4597L107.039 26.3763L102.762 23.7856ZM97.078 14.3384L101.362 11.7607L92.078 -3.67049V14.3384H97.078ZM97.078 21.12H92.078V26.12H97.078V21.12ZM98.646 21.12H103.646V16.12H98.646V21.12ZM98.646 27V32H103.646V27H98.646ZM88.3364 27H83.3364V32H88.3364V27ZM88.3364 21.12V16.12H83.3364V21.12H88.3364ZM89.9044 21.12V26.12H94.9044V21.12H89.9044ZM89.9044 6.7336H94.9044V1.7336H89.9044V6.7336ZM88.3364 6.7336H83.3364V11.7336H88.3364V6.7336ZM88.3364 0.853597V-4.1464H83.3364V0.853597H88.3364ZM96.7252 0.853597L101.023 -1.70178L99.5694 -4.1464H96.7252V0.853597ZM102.762 11.0064L98.4644 13.5618L102.748 20.7663L107.052 13.574L102.762 11.0064ZM108.838 0.853597V-4.1464H106.003L104.548 -1.71401L108.838 0.853597ZM117.266 0.853597H122.266V-4.1464H117.266V0.853597ZM117.266 6.7336V11.7336H122.266V6.7336H117.266ZM115.659 6.7336V1.7336H110.659V6.7336H115.659ZM115.659 21.12H110.659V26.12H115.659V21.12ZM117.266 21.12H122.266V16.12H117.266V21.12ZM117.266 27V32H122.266V27H117.266ZM106.917 27H101.917V32H106.917V27ZM106.917 21.12V16.12H101.917V21.12H106.917ZM108.485 21.12V26.12H113.485V21.12H108.485ZM108.485 14.3384H113.485V-3.56485L104.209 11.7477L108.485 14.3384ZM107.046 21.2079L101.362 11.7607L92.7937 16.9161L98.4777 26.3633L107.046 21.2079ZM92.078 14.3384V21.12H102.078V14.3384H92.078ZM97.078 26.12H98.646V16.12H97.078V26.12ZM93.646 21.12V27H103.646V21.12H93.646ZM98.646 22H88.3364V32H98.646V22ZM93.3364 27V21.12H83.3364V27H93.3364ZM88.3364 26.12H89.9044V16.12H88.3364V26.12ZM94.9044 21.12V6.7336H84.9044V21.12H94.9044ZM89.9044 1.7336H88.3364V11.7336H89.9044V1.7336ZM93.3364 6.7336V0.853597H83.3364V6.7336H93.3364ZM88.3364 5.8536H96.7252V-4.1464H88.3364V5.8536ZM92.4276 3.40897L98.4644 13.5618L107.06 8.45102L101.023 -1.70178L92.4276 3.40897ZM107.052 13.574L113.128 3.4212L104.548 -1.71401L98.4717 8.43879L107.052 13.574ZM108.838 5.8536H117.266V-4.1464H108.838V5.8536ZM112.266 0.853597V6.7336H122.266V0.853597H112.266ZM117.266 1.7336H115.659V11.7336H117.266V1.7336ZM110.659 6.7336V21.12H120.659V6.7336H110.659ZM115.659 26.12H117.266V16.12H115.659V26.12ZM112.266 21.12V27H122.266V21.12H112.266ZM117.266 22H106.917V32H117.266V22ZM111.917 27V21.12H101.917V27H111.917ZM106.917 26.12H108.485V16.12H106.917V26.12ZM113.485 21.12V14.3384H103.485V21.12H113.485ZM104.209 11.7477L98.4856 21.1949L107.039 26.3763L112.762 16.9291L104.209 11.7477ZM129.73 27V32H134.73V27H129.73ZM119.421 27H114.421V32H119.421V27ZM119.421 21.12V16.12H114.421V21.12H119.421ZM120.989 21.12V26.12H125.989V21.12H120.989ZM120.989 6.7336H125.989V1.7336H120.989V6.7336ZM119.421 6.7336H114.421V11.7336H119.421V6.7336ZM119.421 0.853597V-4.1464H114.421V0.853597H119.421ZM129.73 0.853597H134.73V-4.1464H129.73V0.853597ZM129.73 6.7336V11.7336H134.73V6.7336H129.73ZM128.162 6.7336V1.7336H123.162V6.7336H128.162ZM128.162 21.12H123.162V26.12H128.162V21.12ZM129.73 21.12H134.73V16.12H129.73V21.12ZM129.73 22H119.421V32H129.73V22ZM124.421 27V21.12H114.421V27H124.421ZM119.421 26.12H120.989V16.12H119.421V26.12ZM125.989 21.12V6.7336H115.989V21.12H125.989ZM120.989 1.7336H119.421V11.7336H120.989V1.7336ZM124.421 6.7336V0.853597H114.421V6.7336H124.421ZM119.421 5.8536H129.73V-4.1464H119.421V5.8536ZM124.73 0.853597V6.7336H134.73V0.853597H124.73ZM129.73 1.7336H128.162V11.7336H129.73V1.7336ZM123.162 6.7336V21.12H133.162V6.7336H123.162ZM128.162 26.12H129.73V16.12H128.162V26.12ZM124.73 21.12V27H134.73V21.12H124.73Z" fill="#221F20" mask="url(#path-1-outside-1_6_4)"/>
</g>
<defs>
<filter id="filter0_d_6_4" x="0.9216" y="0.853516" width="132.809" height="38.1465" filterUnits="userSpaceOnUse" color-interpolation-filters="sRGB">
<feFlood flood-opacity="0" result="BackgroundImageFix"/>
<feColorMatrix in="SourceAlpha" type="matrix" values="0 0 0 0 0 0 0 0 0 0 0 0 0 0 0 0 0 0 127 0" result="hardAlpha"/>
<feOffset dy="8"/>
<feGaussianBlur stdDeviation="2"/>
<feComposite in2="hardAlpha" operator="out"/>
<feColorMatrix type="matrix" values="0 0 0 0 0 0 0 0 0 0 0 0 0 0 0 0 0 0 0.25 0"/>
<feBlend mode="normal" in2="BackgroundImageFix" result="effect1_dropShadow_6_4"/>
<feBlend mode="normal" in="SourceGraphic" in2="effect1_dropShadow_6_4" result="shape"/>
</filter>
</defs>
</svg>
