<svg width="265" height="265" viewBox="0 0 265 265" fill="none" xmlns="http://www.w3.org/2000/svg">
<path fill-rule="evenodd" clip-rule="evenodd" d="M116.356 10.8132C77.8248 15.9914 42.9484 42.1868 26.6524 78.2816C18.5806 95.9483 16.9053 105.239 16.9053 131.739C16.9053 152.451 17.3622 157.934 20.2558 167.986C35.7903 222.052 83.7645 257.08 138.592 253.882C185.805 251.141 226.012 220.681 241.851 175.448C246.267 163.112 246.572 160.371 247.181 137.069C247.638 115.595 247.333 109.96 244.592 98.6897C234.693 56.8075 202.101 23.9109 159.914 13.25C147.73 10.0517 128.845 8.98563 116.356 10.8132ZM132.652 85.8965C133.414 81.9368 132.957 79.8046 130.977 77.6724C127.779 74.0172 120.773 73.7126 118.032 76.9109C116.661 78.5862 114.529 79.0431 111.178 78.2816C104.782 77.2155 95.4915 81.3276 94.2731 85.8965C92.7501 92.2931 94.4254 105.695 97.1668 108.741C98.5375 110.417 99.7559 112.397 99.7559 113.006C99.7559 113.767 101.431 113.92 103.563 113.31C106.762 112.549 107.371 112.853 107.371 115.595C107.371 117.422 106.457 121.23 105.239 124.124L102.954 129.302L106.762 127.626C108.741 126.713 110.417 125.342 110.417 124.733C110.417 123.971 113.006 120.925 116.052 117.727C120.316 113.615 121.839 110.721 122.144 106.761C122.296 103.716 122.905 98.6897 123.362 95.4914C124.276 91.0747 123.819 89.0948 121.839 86.658C118.032 82.6983 120.012 81.1753 123.971 85.1351C125.799 86.9626 127.17 89.8563 127.17 91.8362C127.17 95.0345 132.652 102.04 135.241 102.04C135.698 102.04 135.089 99.6034 133.871 96.5575C132.5 93.2069 132.043 89.2471 132.652 85.8965ZM186.414 106.761C189.155 104.934 185.348 95.0345 180.322 90.7701C173.773 85.2874 166.31 85.4396 160.523 91.227C158.086 93.6638 156.106 97.0144 156.106 98.6897C156.106 102.04 148.035 109.655 144.684 109.655C139.963 109.655 140.877 113.31 146.969 118.945C152.908 124.428 153.822 124.733 156.106 122.601C159.305 119.707 160.523 119.707 163.874 122.753C166.463 125.037 167.072 125.037 172.707 122.448C176.058 120.773 179.104 118.489 179.56 117.27C181.236 113.158 184.739 107.675 186.414 106.761ZM117.727 135.546C125.342 135.546 131.129 131.129 133.414 123.667C134.328 120.468 134.785 116.509 134.48 114.833C134.175 112.244 133.262 111.94 129.454 112.701C120.316 114.681 114.986 120.468 112.701 130.52C111.635 135.546 111.787 135.546 117.727 135.546ZM147.425 150.776C149.558 150.776 153.06 140.42 153.06 134.328C153.06 129.302 151.994 127.474 144.989 120.773L136.917 113.006L135.089 124.885C132.805 138.897 134.023 143.313 141.181 147.73C143.923 149.405 146.816 150.776 147.425 150.776ZM96.7099 131.586C100.822 127.17 104.325 123.21 104.325 122.753C104.325 121.23 102.345 121.687 95.6438 124.885C89.0949 127.779 86.8104 131.891 87.8765 137.983C88.0288 139.658 87.115 142.552 85.5921 144.684C84.2214 146.664 83.003 150.014 83.003 151.994C83.003 155.04 83.4599 155.193 86.2012 153.822C87.8765 152.756 90.3133 149.71 91.5317 146.816C92.8914 143.611 94.4989 141.397 95.0112 141.477C95.3022 141.523 95.2398 142.309 94.5777 144.075C94.1208 145.445 94.73 150.319 96.1007 154.888C98.3852 162.96 98.3852 171.184 95.9484 179.103C95.1869 181.388 95.9484 182.606 98.9944 183.977C101.127 185.043 104.325 185.805 106 185.805C108.894 185.805 108.894 185.652 106.305 180.779C104.325 177.124 103.563 172.402 103.563 162.198C103.563 151.994 104.325 147.273 106.305 143.466C108.894 138.744 108.894 138.592 105.848 138.592C104.02 138.592 101.431 139.201 100.06 139.963C98.9395 140.523 96.9937 140.836 95.1336 140.78C94.4663 140.76 93.8101 140.692 93.207 140.572L88.9426 139.81L96.7099 131.586ZM172.402 148.644C172.555 148.491 172.098 146.055 171.336 143.313C170.575 140.572 167.224 135.241 163.721 131.586L157.629 124.885V130.368C157.629 134.937 158.848 136.917 164.787 142.552C168.747 146.055 172.25 148.948 172.402 148.644ZM66.0978 138.287C71.5806 139.049 74.9311 134.328 72.3421 129.454C70.5145 126.103 64.1179 125.342 62.2903 128.083C61.6811 129.149 61.0719 132.348 60.7673 135.394C60.7008 136.325 60.7287 137.264 60.8844 138.287C61.4416 141.951 63.6349 146.703 68.9915 156.106C73.7127 164.483 78.2817 171.793 79.0432 172.402C82.8507 174.991 92.1409 161.437 92.1409 153.517C92.1409 150.319 91.8363 150.471 86.9627 155.193C84.2214 157.934 81.1754 162.351 80.2616 164.94L78.7386 169.813L78.5863 164.787C78.434 158.086 75.388 152.756 67.9254 145.445C64.4225 142.247 61.6811 139.049 61.6811 138.592C61.6811 137.983 63.661 137.83 66.0978 138.287ZM106 137.069C109.655 137.069 110.417 136.46 110.417 133.261C110.417 131.129 109.503 129.454 108.589 129.454C105.696 129.606 97.9283 133.261 94.4254 136.307C91.5317 138.744 91.5317 138.744 96.5576 137.983C99.299 137.526 103.563 137.069 106 137.069ZM122.448 158.391C124.276 155.497 127.017 149.405 128.845 144.836C133.109 133.261 132.348 131.434 125.19 136.46C116.204 142.399 112.397 154.279 117.118 160.675C119.098 163.417 119.402 163.264 122.448 158.391ZM205.451 145.293C208.65 142.095 208.497 139.201 204.842 135.546C201.491 132.195 199.207 131.891 195.4 134.175C192.201 136.003 191.744 143.161 194.486 145.902C197.075 148.491 202.71 148.187 205.451 145.293ZM113.767 155.497C113.31 149.862 113.92 147.425 117.118 142.704C120.468 137.83 120.621 137.069 118.336 137.069C113.767 137.069 109.046 141.486 107.371 147.425C104.934 156.563 105.391 159.152 110.112 160.828L114.529 162.503L113.767 155.497ZM159.305 153.974C160.828 151.994 162.198 149.71 162.198 148.644C162.046 145.75 156.563 136.612 155.802 137.983C155.497 138.744 154.127 142.247 153.06 145.902C151.233 151.69 151.233 152.756 153.67 155.04C156.106 157.477 156.411 157.477 159.305 153.974ZM132.5 175.753C129.911 170.879 129.606 162.655 131.739 152.299C133.109 145.141 132.652 142.247 131.129 147.425C130.52 148.948 127.779 154.126 125.037 158.848C120.012 167.224 119.859 167.529 122.448 172.402C124.581 176.971 132.5 182.606 134.175 180.779C134.48 180.474 133.871 178.19 132.5 175.753ZM199.055 163.264C201.339 160.523 204.69 155.497 206.517 152.147C208.193 148.644 209.411 145.75 209.106 145.445C208.802 145.141 205.604 147.73 201.796 151.08C197.989 154.431 192.354 159.609 189.155 162.503C182.606 168.29 180.474 172.859 180.474 180.626V185.957L187.632 177.124C191.44 172.25 196.618 166.006 199.055 163.264ZM140.877 160.218C142.4 155.497 143.618 151.537 143.466 151.537C143.313 151.385 141.333 150.167 139.049 148.796C135.241 146.359 135.089 146.511 134.328 149.71C130.825 164.33 131.891 175.448 137.374 180.017C139.658 181.845 139.81 181.388 138.897 175.448C138.44 170.879 139.049 166.006 140.877 160.218ZM179.865 162.655C179.408 159.914 176.819 155.802 174.382 153.365C169.052 148.644 164.635 147.882 165.854 151.842C166.158 153.365 166.92 156.106 167.529 157.934C168.443 161.132 172.555 164.483 178.037 166.463C180.474 167.529 180.779 167.072 179.865 162.655ZM173.621 170.422C170.575 167.529 167.224 162.198 165.854 158.086C164.635 154.126 163.264 150.776 162.96 150.776C161.589 150.776 160.371 161.741 161.285 165.397C161.894 167.681 166.158 173.316 170.575 178.037L178.951 186.566V180.931C178.951 176.514 177.885 174.382 173.621 170.422ZM148.491 160.675C149.405 160.218 150.014 158.086 150.014 155.954C150.014 152.147 145.902 150.776 144.684 154.126C141.029 164.026 139.81 171.184 140.877 176.057C142.704 183.825 143.923 184.282 143.923 176.971C143.923 173.621 144.684 170.27 145.446 169.813C146.359 169.356 146.969 167.224 146.969 165.244C146.969 163.264 147.73 161.132 148.491 160.675ZM149.253 172.859C150.319 170.27 151.69 166.006 152.299 163.264C153.213 158.695 152.604 156.868 150.928 159.609C148.796 163.264 145.446 174.991 145.598 178.951C145.75 181.997 146.055 182.454 146.512 180.474C146.816 178.799 148.035 175.296 149.253 172.859ZM120.621 177.733C119.707 174.23 118.032 169.813 116.966 167.986C115.747 166.158 112.701 164.026 110.264 163.112C106 161.589 105.848 161.741 105.848 166.92C105.848 176.362 112.701 185.805 118.641 184.739C121.991 183.977 122.144 183.672 120.621 177.733ZM137.069 187.48C145.902 186.414 146.055 186.261 141.943 184.586C136.612 182.302 133.262 182.454 122.601 185.043C112.397 187.632 103.563 187.937 99.4513 185.652C97.776 184.739 96.1007 184.434 95.6438 184.739C95.1869 185.195 97.1668 186.718 99.9081 188.241C105.086 190.83 108.741 190.83 137.069 187.48Z" fill="#241E20"/>
<path d="M180.322 90.7701C185.348 95.0345 189.155 104.934 186.414 106.761C184.739 107.675 181.236 113.158 179.56 117.27C179.104 118.489 176.058 120.773 172.707 122.448C167.072 125.037 166.463 125.037 163.874 122.753C160.523 119.707 159.305 119.707 156.106 122.601C153.822 124.733 152.908 124.428 146.969 118.945C140.877 113.31 139.963 109.655 144.684 109.655C148.035 109.655 156.106 102.04 156.106 98.6897C156.106 97.0144 158.086 93.6638 160.523 91.227C166.31 85.4396 173.773 85.2874 180.322 90.7701Z" fill="#6EFF24"/>
<path d="M130.977 77.6724C132.957 79.8046 133.414 81.9368 132.652 85.8965C132.043 89.2471 132.5 93.2069 133.871 96.5575C135.089 99.6034 135.698 102.04 135.241 102.04C132.652 102.04 127.17 95.0345 127.17 91.8362C127.17 89.8563 125.799 86.9626 123.971 85.1351C120.012 81.1753 118.032 82.6983 121.839 86.658C123.819 89.0948 124.276 91.0747 123.362 95.4914C122.905 98.6897 122.296 103.716 122.144 106.761C121.839 110.721 120.316 113.615 116.052 117.727C113.006 120.925 110.417 123.971 110.417 124.733C110.417 125.342 108.741 126.713 106.762 127.626L102.954 129.302L105.239 124.124C106.457 121.23 107.371 117.422 107.371 115.595C107.371 112.853 106.762 112.549 103.563 113.31C101.431 113.92 99.7559 113.767 99.7559 113.006C99.7559 112.397 98.5375 110.417 97.1668 108.741C94.4254 105.695 92.7501 92.2931 94.2731 85.8965C95.4915 81.3276 104.782 77.2155 111.178 78.2816C114.529 79.0431 116.661 78.5862 118.032 76.9109C120.773 73.7126 127.779 74.0172 130.977 77.6724Z" fill="#5BFF07"/>
<path d="M72.3421 129.454C74.9311 134.328 71.5806 139.049 66.0978 138.287C63.661 137.83 61.6811 137.983 61.6811 138.592L60.8844 138.287C60.7287 137.264 60.7008 136.325 60.7673 135.394C61.0719 132.348 61.6811 129.149 62.2903 128.083C64.1179 125.342 70.5145 126.103 72.3421 129.454Z" fill="#5BFF07"/>
<path d="M204.842 135.546C208.497 139.201 208.65 142.095 205.451 145.293C202.71 148.187 197.075 148.491 194.486 145.902C191.744 143.161 192.201 136.003 195.4 134.175C199.207 131.891 201.491 132.195 204.842 135.546Z" fill="#5BFF07"/>
<path fill-rule="evenodd" clip-rule="evenodd" d="M132.5 265C205.678 265 265 205.678 265 132.5C265 59.3223 205.678 0 132.5 0C59.3223 0 0 59.3223 0 132.5C0 205.678 59.3223 265 132.5 265ZM132.5 229.554C186.102 229.554 229.554 186.101 229.554 132.5C229.554 78.8984 186.102 35.4458 132.5 35.4458C78.8985 35.4458 35.4459 78.8984 35.4459 132.5C35.4459 186.101 78.8985 229.554 132.5 229.554Z" fill="#3D444D"/>
<g filter="url(#filter0_d_2307_20)">
<mask id="path-3-outside-1_2307_20" maskUnits="userSpaceOnUse" x="23.6982" y="200.323" width="212" height="54" fill="black">
<rect fill="white" x="23.6982" y="200.323" width="212" height="54"/>
<path d="M61.424 225.016V241.601L54.7019 248.323H36.2947L29.5726 241.601V213.142L36.2947 206.42H54.7019L61.424 213.142V222.44H49.8645V217.226L48.5452 215.844H42.4514L41.0693 217.226V237.518L42.4514 238.9H48.5452L49.9273 237.518V233.623H46.7234V225.016H61.424ZM93.9336 229.413V238.837H96.4465V248.26H79.924V238.837H82.4997V229.413L68.9299 215.844H64.972V206.42H84.9498V215.844H83.2536L88.2167 220.87L93.1797 215.844H91.5463V206.42H110.833V215.844H107.503L93.9336 229.413ZM136.558 243.172L127.449 228.031V238.9H129.962V248.323H113.439V238.9H115.952V215.844H113.439V206.42H126.883L136.558 222.691L146.296 206.42H159.803V215.844H157.227V238.9H159.803V248.323H143.217V238.9H145.73V228.031L136.558 243.172ZM186.375 243.172L177.266 228.031V238.9H179.779V248.323H163.256V238.9H165.769V215.844H163.256V206.42H176.7L186.375 222.691L196.113 206.42H209.62V215.844H207.044V238.9H209.62V248.323H193.034V238.9H195.547V228.031L186.375 243.172ZM229.596 248.323H213.073V238.9H215.586V215.844H213.073V206.42H229.596V215.844H227.083V238.9H229.596V248.323Z"/>
</mask>
<path d="M61.424 225.016V241.601L54.7019 248.323H36.2947L29.5726 241.601V213.142L36.2947 206.42H54.7019L61.424 213.142V222.44H49.8645V217.226L48.5452 215.844H42.4514L41.0693 217.226V237.518L42.4514 238.9H48.5452L49.9273 237.518V233.623H46.7234V225.016H61.424ZM93.9336 229.413V238.837H96.4465V248.26H79.924V238.837H82.4997V229.413L68.9299 215.844H64.972V206.42H84.9498V215.844H83.2536L88.2167 220.87L93.1797 215.844H91.5463V206.42H110.833V215.844H107.503L93.9336 229.413ZM136.558 243.172L127.449 228.031V238.9H129.962V248.323H113.439V238.9H115.952V215.844H113.439V206.42H126.883L136.558 222.691L146.296 206.42H159.803V215.844H157.227V238.9H159.803V248.323H143.217V238.9H145.73V228.031L136.558 243.172ZM186.375 243.172L177.266 228.031V238.9H179.779V248.323H163.256V238.9H165.769V215.844H163.256V206.42H176.7L186.375 222.691L196.113 206.42H209.62V215.844H207.044V238.9H209.62V248.323H193.034V238.9H195.547V228.031L186.375 243.172ZM229.596 248.323H213.073V238.9H215.586V215.844H213.073V206.42H229.596V215.844H227.083V238.9H229.596V248.323Z" fill="#4CB019"/>
<path d="M61.424 225.016H67.1352V219.305H61.424V225.016ZM61.424 241.601L65.4624 245.64L67.1352 243.967V241.601H61.424ZM54.7019 248.323V254.034H57.0676L58.7403 252.362L54.7019 248.323ZM36.2947 248.323L32.2563 252.362L33.929 254.034H36.2947V248.323ZM29.5726 241.601H23.8614V243.967L25.5342 245.64L29.5726 241.601ZM29.5726 213.142L25.5342 209.104L23.8614 210.777V213.142H29.5726ZM36.2947 206.42V200.709H33.929L32.2563 202.382L36.2947 206.42ZM54.7019 206.42L58.7403 202.382L57.0676 200.709H54.7019V206.42ZM61.424 213.142H67.1352V210.777L65.4624 209.104L61.424 213.142ZM61.424 222.44V228.151H67.1352V222.44H61.424ZM49.8645 222.44H44.1533V228.151H49.8645V222.44ZM49.8645 217.226H55.5757V214.938L53.9957 213.282L49.8645 217.226ZM48.5452 215.844L52.6765 211.9L50.9891 210.132H48.5452V215.844ZM42.4514 215.844V210.132H40.0857L38.4129 211.805L42.4514 215.844ZM41.0693 217.226L37.0308 213.187L35.358 214.86V217.226H41.0693ZM41.0693 237.518H35.358V239.883L37.0308 241.556L41.0693 237.518ZM42.4514 238.9L38.4129 242.938L40.0857 244.611H42.4514V238.9ZM48.5452 238.9V244.611H50.9109L52.5837 242.938L48.5452 238.9ZM49.9273 237.518L53.9658 241.556L55.6385 239.883V237.518H49.9273ZM49.9273 233.623H55.6385V227.911H49.9273V233.623ZM46.7234 233.623H41.0121V239.334H46.7234V233.623ZM46.7234 225.016V219.305H41.0121V225.016H46.7234ZM55.7128 225.016V241.601H67.1352V225.016H55.7128ZM57.3856 237.563L50.6635 244.285L58.7403 252.362L65.4624 245.64L57.3856 237.563ZM54.7019 242.612H36.2947V254.034H54.7019V242.612ZM40.3331 244.285L33.611 237.563L25.5342 245.64L32.2563 252.362L40.3331 244.285ZM35.2838 241.601V213.142H23.8614V241.601H35.2838ZM33.611 217.181L40.3331 210.459L32.2563 202.382L25.5342 209.104L33.611 217.181ZM36.2947 212.131H54.7019V200.709H36.2947V212.131ZM50.6635 210.459L57.3856 217.181L65.4624 209.104L58.7403 202.382L50.6635 210.459ZM55.7128 213.142V222.44H67.1352V213.142H55.7128ZM61.424 216.729H49.8645V228.151H61.424V216.729ZM55.5757 222.44V217.226H44.1533V222.44H55.5757ZM53.9957 213.282L52.6765 211.9L44.414 219.787L45.7333 221.169L53.9957 213.282ZM48.5452 210.132H42.4514V221.555H48.5452V210.132ZM38.4129 211.805L37.0308 213.187L45.1077 221.264L46.4898 219.882L38.4129 211.805ZM35.358 217.226V237.518H46.7805V217.226H35.358ZM37.0308 241.556L38.4129 242.938L46.4898 234.861L45.1077 233.479L37.0308 241.556ZM42.4514 244.611H48.5452V233.189H42.4514V244.611ZM52.5837 242.938L53.9658 241.556L45.8889 233.479L44.5068 234.861L52.5837 242.938ZM55.6385 237.518V233.623H44.2161V237.518H55.6385ZM49.9273 227.911H46.7234V239.334H49.9273V227.911ZM52.4346 233.623V225.016H41.0121V233.623H52.4346ZM46.7234 230.727H61.424V219.305H46.7234V230.727ZM93.9336 229.413L89.8951 225.375L88.2224 227.048V229.413H93.9336ZM93.9336 238.837H88.2224V244.548H93.9336V238.837ZM96.4465 238.837H102.158V233.126H96.4465V238.837ZM96.4465 248.26V253.972H102.158V248.26H96.4465ZM79.924 248.26H74.2128V253.972H79.924V248.26ZM79.924 238.837V233.126H74.2128V238.837H79.924ZM82.4997 238.837V244.548H88.2109V238.837H82.4997ZM82.4997 229.413H88.2109V227.048L86.5382 225.375L82.4997 229.413ZM68.9299 215.844L72.9683 211.805L71.2956 210.132H68.9299V215.844ZM64.972 215.844H59.2608V221.555H64.972V215.844ZM64.972 206.42V200.709H59.2608V206.42H64.972ZM84.9498 206.42H90.661V200.709H84.9498V206.42ZM84.9498 215.844V221.555H90.661V215.844H84.9498ZM83.2536 215.844V210.132H69.5873L79.1899 219.857L83.2536 215.844ZM88.2167 220.87L84.1529 224.882L88.2167 228.998L92.2804 224.882L88.2167 220.87ZM93.1797 215.844L97.2434 219.857L106.846 210.132H93.1797V215.844ZM91.5463 215.844H85.8351V221.555H91.5463V215.844ZM91.5463 206.42V200.709H85.8351V206.42H91.5463ZM110.833 206.42H116.544V200.709H110.833V206.42ZM110.833 215.844V221.555H116.544V215.844H110.833ZM107.503 215.844V210.132H105.138L103.465 211.805L107.503 215.844ZM88.2224 229.413V238.837H99.6448V229.413H88.2224ZM93.9336 244.548H96.4465V233.126H93.9336V244.548ZM90.7353 238.837V248.26H102.158V238.837H90.7353ZM96.4465 242.549H79.924V253.972H96.4465V242.549ZM85.6352 248.26V238.837H74.2128V248.26H85.6352ZM79.924 244.548H82.4997V233.126H79.924V244.548ZM88.2109 238.837V229.413H76.7885V238.837H88.2109ZM86.5382 225.375L72.9683 211.805L64.8915 219.882L78.4613 233.452L86.5382 225.375ZM68.9299 210.132H64.972V221.555H68.9299V210.132ZM70.6832 215.844V206.42H59.2608V215.844H70.6832ZM64.972 212.131H84.9498V200.709H64.972V212.131ZM79.2386 206.42V215.844H90.661V206.42H79.2386ZM84.9498 210.132H83.2536V221.555H84.9498V210.132ZM79.1899 219.857L84.1529 224.882L92.2804 216.857L87.3174 211.831L79.1899 219.857ZM92.2804 224.882L97.2434 219.857L89.1159 211.831L84.1529 216.857L92.2804 224.882ZM93.1797 210.132H91.5463V221.555H93.1797V210.132ZM97.2575 215.844V206.42H85.8351V215.844H97.2575ZM91.5463 212.131H110.833V200.709H91.5463V212.131ZM105.122 206.42V215.844H116.544V206.42H105.122ZM110.833 210.132H107.503V221.555H110.833V210.132ZM103.465 211.805L89.8951 225.375L97.972 233.452L111.542 219.882L103.465 211.805ZM136.558 243.172L131.664 246.116L136.541 254.222L141.443 246.131L136.558 243.172ZM127.449 228.031L132.343 225.087L121.738 207.461V228.031H127.449ZM127.449 238.9H121.738V244.611H127.449V238.9ZM129.962 238.9H135.673V233.189H129.962V238.9ZM129.962 248.323V254.034H135.673V248.323H129.962ZM113.439 248.323H107.728V254.034H113.439V248.323ZM113.439 238.9V233.189H107.728V238.9H113.439ZM115.952 238.9V244.611H121.663V238.9H115.952ZM115.952 215.844H121.663V210.132H115.952V215.844ZM113.439 215.844H107.728V221.555H113.439V215.844ZM113.439 206.42V200.709H107.728V206.42H113.439ZM126.883 206.42L131.792 203.501L130.132 200.709H126.883V206.42ZM136.558 222.691L131.649 225.61L136.542 233.84L141.459 225.624L136.558 222.691ZM146.296 206.42V200.709H143.058L141.395 203.487L146.296 206.42ZM159.803 206.42H165.514V200.709H159.803V206.42ZM159.803 215.844V221.555H165.514V215.844H159.803ZM157.227 215.844V210.132H151.516V215.844H157.227ZM157.227 238.9H151.516V244.611H157.227V238.9ZM159.803 238.9H165.514V233.189H159.803V238.9ZM159.803 248.323V254.034H165.514V248.323H159.803ZM143.217 248.323H137.506V254.034H143.217V248.323ZM143.217 238.9V233.189H137.506V238.9H143.217ZM145.73 238.9V244.611H151.442V238.9H145.73ZM145.73 228.031H151.442V207.582L140.846 225.072L145.73 228.031ZM141.452 240.227L132.343 225.087L122.555 230.976L131.664 246.116L141.452 240.227ZM121.738 228.031V238.9H133.16V228.031H121.738ZM127.449 244.611H129.962V233.189H127.449V244.611ZM124.251 238.9V248.323H135.673V238.9H124.251ZM129.962 242.612H113.439V254.034H129.962V242.612ZM119.15 248.323V238.9H107.728V248.323H119.15ZM113.439 244.611H115.952V233.189H113.439V244.611ZM121.663 238.9V215.844H110.241V238.9H121.663ZM115.952 210.132H113.439V221.555H115.952V210.132ZM119.15 215.844V206.42H107.728V215.844H119.15ZM113.439 212.131H126.883V200.709H113.439V212.131ZM121.974 209.339L131.649 225.61L141.467 219.773L131.792 203.501L121.974 209.339ZM141.459 225.624L151.196 209.353L141.395 203.487L131.658 219.759L141.459 225.624ZM146.296 212.131H159.803V200.709H146.296V212.131ZM154.092 206.42V215.844H165.514V206.42H154.092ZM159.803 210.132H157.227V221.555H159.803V210.132ZM151.516 215.844V238.9H162.938V215.844H151.516ZM157.227 244.611H159.803V233.189H157.227V244.611ZM154.092 238.9V248.323H165.514V238.9H154.092ZM159.803 242.612H143.217V254.034H159.803V242.612ZM148.929 248.323V238.9H137.506V248.323H148.929ZM143.217 244.611H145.73V233.189H143.217V244.611ZM151.442 238.9V228.031H140.019V238.9H151.442ZM140.846 225.072L131.673 240.213L141.443 246.131L150.615 230.991L140.846 225.072ZM186.375 243.172L181.481 246.116L186.358 254.222L191.26 246.131L186.375 243.172ZM177.266 228.031L182.159 225.087L171.554 207.461V228.031H177.266ZM177.266 238.9H171.554V244.611H177.266V238.9ZM179.779 238.9H185.49V233.189H179.779V238.9ZM179.779 248.323V254.034H185.49V248.323H179.779ZM163.256 248.323H157.545V254.034H163.256V248.323ZM163.256 238.9V233.189H157.545V238.9H163.256ZM165.769 238.9V244.611H171.48V238.9H165.769ZM165.769 215.844H171.48V210.132H165.769V215.844ZM163.256 215.844H157.545V221.555H163.256V215.844ZM163.256 206.42V200.709H157.545V206.42H163.256ZM176.7 206.42L181.609 203.501L179.949 200.709H176.7V206.42ZM186.375 222.691L181.466 225.61L186.359 233.84L191.276 225.624L186.375 222.691ZM196.113 206.42V200.709H192.875L191.212 203.487L196.113 206.42ZM209.62 206.42H215.331V200.709H209.62V206.42ZM209.62 215.844V221.555H215.331V215.844H209.62ZM207.044 215.844V210.132H201.333V215.844H207.044ZM207.044 238.9H201.333V244.611H207.044V238.9ZM209.62 238.9H215.331V233.189H209.62V238.9ZM209.62 248.323V254.034H215.331V248.323H209.62ZM193.034 248.323H187.323V254.034H193.034V248.323ZM193.034 238.9V233.189H187.323V238.9H193.034ZM195.547 238.9V244.611H201.258V238.9H195.547ZM195.547 228.031H201.258V207.582L190.663 225.072L195.547 228.031ZM191.269 240.227L182.159 225.087L172.372 230.976L181.481 246.116L191.269 240.227ZM171.554 228.031V238.9H182.977V228.031H171.554ZM177.266 244.611H179.779V233.189H177.266V244.611ZM174.067 238.9V248.323H185.49V238.9H174.067ZM179.779 242.612H163.256V254.034H179.779V242.612ZM168.967 248.323V238.9H157.545V248.323H168.967ZM163.256 244.611H165.769V233.189H163.256V244.611ZM171.48 238.9V215.844H160.058V238.9H171.48ZM165.769 210.132H163.256V221.555H165.769V210.132ZM168.967 215.844V206.42H157.545V215.844H168.967ZM163.256 212.131H176.7V200.709H163.256V212.131ZM171.791 209.339L181.466 225.61L191.284 219.773L181.609 203.501L171.791 209.339ZM191.276 225.624L201.013 209.353L191.212 203.487L181.474 219.759L191.276 225.624ZM196.113 212.131H209.62V200.709H196.113V212.131ZM203.908 206.42V215.844H215.331V206.42H203.908ZM209.62 210.132H207.044V221.555H209.62V210.132ZM201.333 215.844V238.9H212.755V215.844H201.333ZM207.044 244.611H209.62V233.189H207.044V244.611ZM203.908 238.9V248.323H215.331V238.9H203.908ZM209.62 242.612H193.034V254.034H209.62V242.612ZM198.746 248.323V238.9H187.323V248.323H198.746ZM193.034 244.611H195.547V233.189H193.034V244.611ZM201.258 238.9V228.031H189.836V238.9H201.258ZM190.663 225.072L181.49 240.213L191.26 246.131L200.432 230.991L190.663 225.072ZM229.596 248.323V254.034H235.307V248.323H229.596ZM213.073 248.323H207.362V254.034H213.073V248.323ZM213.073 238.9V233.189H207.362V238.9H213.073ZM215.586 238.9V244.611H221.297V238.9H215.586ZM215.586 215.844H221.297V210.132H215.586V215.844ZM213.073 215.844H207.362V221.555H213.073V215.844ZM213.073 206.42V200.709H207.362V206.42H213.073ZM229.596 206.42H235.307V200.709H229.596V206.42ZM229.596 215.844V221.555H235.307V215.844H229.596ZM227.083 215.844V210.132H221.371V215.844H227.083ZM227.083 238.9H221.371V244.611H227.083V238.9ZM229.596 238.9H235.307V233.189H229.596V238.9ZM229.596 242.612H213.073V254.034H229.596V242.612ZM218.784 248.323V238.9H207.362V248.323H218.784ZM213.073 244.611H215.586V233.189H213.073V244.611ZM221.297 238.9V215.844H209.875V238.9H221.297ZM215.586 210.132H213.073V221.555H215.586V210.132ZM218.784 215.844V206.42H207.362V215.844H218.784ZM213.073 212.131H229.596V200.709H213.073V212.131ZM223.884 206.42V215.844H235.307V206.42H223.884ZM229.596 210.132H227.083V221.555H229.596V210.132ZM221.371 215.844V238.9H232.794V215.844H221.371ZM227.083 244.611H229.596V233.189H227.083V244.611ZM223.884 238.9V248.323H235.307V238.9H223.884Z" fill="#221F20" mask="url(#path-3-outside-1_2307_20)"/>
</g>
<defs>
<filter id="filter0_d_2307_20" x="25.0037" y="206.42" width="209.161" height="55.61" filterUnits="userSpaceOnUse" color-interpolation-filters="sRGB">
<feFlood flood-opacity="0" result="BackgroundImageFix"/>
<feColorMatrix in="SourceAlpha" type="matrix" values="0 0 0 0 0 0 0 0 0 0 0 0 0 0 0 0 0 0 127 0" result="hardAlpha"/>
<feOffset dy="9.13793"/>
<feGaussianBlur stdDeviation="2.28448"/>
<feComposite in2="hardAlpha" operator="out"/>
<feColorMatrix type="matrix" values="0 0 0 0 0 0 0 0 0 0 0 0 0 0 0 0 0 0 0.25 0"/>
<feBlend mode="normal" in2="BackgroundImageFix" result="effect1_dropShadow_2307_20"/>
<feBlend mode="normal" in="SourceGraphic" in2="effect1_dropShadow_2307_20" result="shape"/>
</filter>
</defs>
</svg>
